# AST/ASF file generated using VICON BodyLanguage
# -----------------------------------------------
:version 1.10
:name VICON
:units
  mass 1.0
  length 0.45
  angle deg
:documentation
   .ast/.asf automatically generated from VICON data using
   VICON BodyBuilder and BodyLanguage model FoxedUp or BRILLIANT.MOD
:root
   order TX TY TZ RX RY RZ
   axis XYZ
   position 0 0 0  
   orientation 0 0 0 
:bonedata
  begin
     id 1 
     name lhipjoint
     direction 0.573633 -0.743009 0.344793 
     length 2.46257 
     axis 0 0 0  XYZ
  end
  begin
     id 2 
     name lfemur
     direction 0.34202 -0.939693 0  
     length 7.3842  
     axis 0 0 20  XYZ
    dof rx ry rz
    limits (-160.0 20.0)
           (-70.0 70.0)
           (-60.0 70.0)
  end
  begin
     id 3 
     name ltibia
     direction 0.34202 -0.939693 0   
     length 7.50407   
     axis 0 0 20   XYZ
    dof rx
    limits (-10.0 170.0)
  end
  begin
     id 4 
     name lfoot
     direction 0.110749 -0.304281 0.946123   
     length 1.95925   
     axis -90 7.62852e-016 20   XYZ
    dof rx rz
    limits (-45.0 90.0)
           (-70.0 20.0)
  end
  begin
     id 5 
     name ltoes
     direction 1.53554e-011 -4.21843e-011 1   
     length 0.978318   
     axis -90 7.62852e-016 20   XYZ
    dof rx
    limits (-90.0 20.0)
  end
  begin
     id 6 
     name rhipjoint
     direction -0.488109 -0.791693 0.367385   
     length 2.31113  
     axis 0 0 0  XYZ 
  end
  begin
     id 7 
     name rfemur
     direction -0.34202 -0.939693 0   
     length 7.40965   
     axis 0 0 -20   XYZ
    dof rx ry rz
    limits (-160.0 20.0)
           (-70.0 70.0)
           (-70.0 60.0)
  end
  begin
     id 8 
     name rtibia
     direction -0.34202 -0.939693 0   
     length 7.55548   
     axis 0 0 -20   XYZ
    dof rx
    limits (-10.0 170.0)
 end
 begin
     id 9 
     name rfoot
     direction -0.127594 -0.350561 0.927808   
     length 2.07199  
     axis -90 -7.62852e-016 -20   XYZ
    dof rx rz
    limits (-45.0 90.0)
           (-20.0 70.0)
  end
  begin
     id 10 
     name rtoes
     direction -1.53542e-011 -4.21909e-011 1   
     length 1.02667   
     axis -90 -7.62852e-016 -20   XYZ
    dof rx
    limits (-90.0 20.0)
  end
  begin
     id 11 
     name lowerback
     direction -0.0103342 0.997298 -0.0727278   
     length 2.02836   
     axis 0 0 0   XYZ
    dof rx ry rz
    limits (-20.0 45.0)
           (-30.0 30.0)
           (-30.0 30.0)
  end
  begin
     id 12 
     name upperback
     direction 0.0171146 0.999786 -0.011606   
     length 2.03179   
     axis 0 0 0   XYZ
    dof rx ry rz
    limits (-20.0 45.0)
           (-30.0 30.0)
           (-30.0 30.0)
  end
  begin
     id 13 
     name thorax
     direction 0.0216927 0.999513 0.0224343   
     length 2.03882   
     axis 0 0 0   XYZ
    dof rx ry rz
    limits (-20.0 45.0)
           (-30.0 30.0)
           (-30.0 30.0)
  end
  begin
     id 14 
     name lowerneck
     direction 0.000989287 0.993907 0.110221   
     length 1.75428   
     axis 0 0 0   XYZ
    dof rx ry rz
    limits (-20.0 45.0)
           (-30.0 30.0)
           (-30.0 30.0)
  end
  begin
     id 15 
     name upperneck
     direction -0.0172474 0.994813 -0.100253   
     length 1.77058   
     axis 0 0 0   XYZ
    dof rx ry rz
    limits (-20.0 45.0)
           (-30.0 30.0)
           (-30.0 30.0)
  end
  begin
     id 16
     name head
     direction -0.00486455 0.99894 -0.0457663  
     length 1.77427  
     axis 0 0 0   XYZ
    dof rx ry rz
    limits (-20.0 45.0)
           (-30.0 30.0)
           (-30.0 30.0)
  end
  begin
     id 17 
     name lclavicle
     direction 0.927314 0.333734 -0.169441  
     length 3.97584  
     axis 0 0 0   XYZ
    dof ry rz
    limits (-20.0 10.0)
           (0.0 20.0)
  end
  begin
     id 18 
     name lhumerus
     direction 1 -4.48965e-011 -3.25313e-028   
     length 4.76468   
     axis 180 -30 -90   XYZ
    dof rx ry rz
    limits (-60.0 90.0)
           (-90.0 90.0)
           (-90.0 90.0)
  end
  begin
     id 19
     name lradius
     direction 1 -4.48969e-011 -2.8465e-028   
     length 3.52712   
     axis -180 -30 -90   XYZ
    dof rx
    limits (-10.0 170.0)
  end
  begin
     id 20
     name lwrist
     direction 1 -4.4896e-011 -7.78665e-028   
     length 1.76356   
     axis 1.91374e-015 90 90   XYZ
    dof ry
    limits (-180.0 0.0)
 end
  begin
     id 21 
     name lhand
     direction 1 -4.48959e-011 -1.55733e-027   
     length 0.859564   
     axis 9.9371e-016 90 90   XYZ
    dof rx rz
    limits (-90.0 90.0)
           (-45.0 45.0)
  end
  begin
     id 22 
     name lfingers
     direction 1 -4.48965e-011 -3.11466e-027   
     length 0.693002   
     axis 1.98742e-015 90 90   XYZ
    dof rx
    limits (0.0 90.0)
  end
  begin
     id 23
     name lthumb
     direction 0.707107 -6.34948e-011 0.707107   
     length 0.995017   
     axis -90 45 2.85299e-015   XYZ
    dof rx rz
    limits (-45.0 45.0)
           (-45.0 45.0)
  end
  begin
     id 24 
     name rclavicle
     direction -0.899388 0.348209 -0.264294   
     length 3.68366  
     axis 0 0 0   XYZ 
    dof ry rz
    limits (-10.0 20.0)
           (-20.0 0.0)
  end
  begin
     id 25 
     name rhumerus
     direction -1 -4.48965e-011 -3.01536e-027  
     length 4.90577   
     axis 180 30 90   XYZ
    dof rx ry rz
    limits (-90.0 60.0)
           (-90.0 90.0)
           (-90.0 90.0)
  end
  begin
     id 26 
     name rradius
     direction -1 -4.48966e-011 3.93291e-027   
     length 3.42692   
     axis -180 30 90   XYZ
    dof rx
    limits (-10.0 170.0)
  end
  begin
     id 27 
     name rwrist
     direction -1 -4.48969e-011 -7.78665e-028   
     length 1.71346   
     axis 1.91374e-015 -90 -90   XYZ
    dof ry
    limits (-180.0 0.0)
  end
  begin
     id 28
     name rhand
     direction -1 -4.48967e-011 -1.55733e-027   
     length 0.740957   
     axis 9.9371e-016 -90 -90   XYZ
    dof rx rz
    limits (-90.0 90.0)
           (-45.0 45.0)
  end
  begin
     id 29
     name rfingers
     direction -1 -4.48949e-011 -3.11466e-027   
     length 0.597378   
     axis 1.98742e-015 -90 -90   XYZ
    dof rx
    limits (0.0 90.0)
  end
  begin
     id 30
     name rthumb
     direction -0.707107 -6.34931e-011 0.707107   
     length 0.857719   
     axis -90 -45 -2.85299e-015   XYZ
    dof rx rz
    limits (-45.0 45.0)
           (-45.0 45.0)
  end
:hierarchy
  begin
    root lhipjoint rhipjoint lowerback
    lhipjoint lfemur
    lfemur ltibia
    ltibia lfoot
    lfoot ltoes
    rhipjoint rfemur
    rfemur rtibia
    rtibia rfoot
    rfoot rtoes
    lowerback upperback
    upperback thorax
    thorax lowerneck lclavicle rclavicle
    lowerneck upperneck
    upperneck head
    lclavicle lhumerus
    lhumerus lradius
    lradius lwrist
    lwrist lhand lthumb
    lhand lfingers
    rclavicle rhumerus
    rhumerus rradius
    rradius rwrist
    rwrist rhand rthumb
    rhand rfingers
  end

#!OML:ASF E:\I on waltz\AllaLogoMonkeySwing\Project 1\Capture day 1\Session 1\Subject1.ASF
:FULLY-SPECIFIED
:DEGREES
259
root 3.10454 17.7691 7.91896 182.158 -181.596 177.901
lowerback 10.7916 -0.184759 2.10466
upperback 0.371101 0.285832 4.57435
thorax -5.69144 0.147245 3.57866
lowerneck -12.8207 1.74441 0.37358
upperneck 13.795 3.31071 -6.22524
head 6.42521 1.10996 -1.74424
rclavicle 1.59028e-015 -5.56597e-014
rhumerus -29.2995 -27.1825 -61.5526
rradius 24.2118
rwrist 1.23077
rhand -8.23108 -35.3525
rfingers 7.12502
rthumb 17.6865 -64.5681
lclavicle 1.59028e-015 -5.56597e-014
lhumerus -49.6023 22.2265 77.5574
lradius 44.4517
lwrist 4.61469
lhand -7.16657 -19.9169
lfingers 7.12502
lthumb 18.7106 9.2032
rfemur -3.98313 -1.89415 12.3021
rtibia 19.9711
rfoot -16.268 -10.133
rtoes 7.72005
lfemur 3.36642 2.04856 -5.79981
ltibia 7.34761
lfoot -4.39441 15.4248
ltoes -40.2362
260
root 3.17223 17.7752 7.89891 182.022 -181.866 178.076
lowerback 10.7417 -0.204348 1.64816
upperback 0.331586 0.193036 4.40349
thorax -5.70071 0.111724 3.67051
lowerneck -12.923 1.65058 0.375749
upperneck 13.9248 3.16237 -6.04729
head 6.47544 1.04815 -1.70159
rclavicle -9.93923e-016 1.11319e-014
rhumerus -29.639 -26.9644 -61.7869
rradius 24.4905
rwrist 1.76265
rhand -8.15198 -35.1547
rfingers 7.12502
rthumb 17.7626 -64.3634
lclavicle -9.93923e-016 1.11319e-014
lhumerus -48.8456 21.4995 78.0355
lradius 45.335
lwrist 4.81211
lhand -7.14846 -20.0636
lfingers 7.12502
lthumb 18.728 9.05491
rfemur -3.74751 -1.87969 11.8581
rtibia 19.7796
rfoot -16.1232 -10.3887
rtoes 7.56107
lfemur 3.35606 2.26904 -6.19001
ltibia 7.39834
lfoot -4.51636 14.9334
ltoes -40.3149
261
root 3.23747 17.7809 7.88011 181.875 -182.123 178.014
lowerback 10.6917 -0.249278 1.45705
upperback 0.295805 0.103194 4.29967
thorax -5.7054 0.0714419 3.6825
lowerneck -12.9945 1.57498 0.312555
upperneck 14.0531 3.04239 -5.81888
head 6.51946 1.00163 -1.62948
rclavicle -7.35503e-015 -6.12257e-014
rhumerus -29.8973 -26.527 -62.1291
rradius 24.6522
rwrist 2.21003
rhand -8.25607 -35.0146
rfingers 7.12502
rthumb 17.6624 -64.2324
lclavicle -7.35503e-015 -6.12257e-014
lhumerus -48.2018 20.9436 78.3571
lradius 46.2962
lwrist 4.97856
lhand -7.07532 -20.0163
lfingers 7.12502
lthumb 18.7984 9.09532
rfemur -3.50965 -1.86041 11.7056
rtibia 19.5945
rfoot -15.9877 -10.6635
rtoes 7.30431
lfemur 3.36597 2.39755 -6.30669
ltibia 7.42324
lfoot -4.58276 14.5645
ltoes -40.357
262
root 3.3026 17.7862 7.86096 181.755 -182.382 178.068
lowerback 10.5889 -0.272265 1.21472
upperback 0.290197 0.0315905 4.17138
thorax -5.64912 0.0406741 3.69327
lowerneck -13.1052 1.4945 0.0321529
upperneck 14.1828 2.93193 -5.42543
head 6.56601 0.961405 -1.46761
rclavicle -3.97569e-015 -2.62396e-014
rhumerus -30.0162 -26.0216 -62.5286
rradius 24.6396
rwrist 2.67841
rhand -8.34608 -35.0803
rfingers 7.12502
rthumb 17.5758 -64.3058
lclavicle -3.97569e-015 -2.62396e-014
lhumerus -47.479 20.3612 78.7505
lradius 47.2617
lwrist 5.30703
lhand -7.05541 -19.8188
lfingers 7.12502
lthumb 18.8175 9.29101
rfemur -3.28058 -1.91225 11.386
rtibia 19.3809
rfoot -15.8393 -10.8321
rtoes 7.22344
lfemur 3.34805 2.40741 -6.61169
ltibia 7.44291
lfoot -4.63955 14.3025
ltoes -40.2205
263
root 3.3652 17.7913 7.84315 181.64 -182.622 178.198
lowerback 10.5024 -0.267028 0.935978
upperback 0.267631 -0.00741116 4.00037
thorax -5.62146 0.0265288 3.67504
lowerneck -13.1716 1.43415 -0.211956
upperneck 14.3043 2.85076 -5.09361
head 6.60541 0.933307 -1.3288
rclavicle -4.57205e-015 2.3059e-014
rhumerus -30.1937 -25.6225 -62.8579
rradius 24.5721
rwrist 3.66426
rhand -7.78973 -35.3068
rfingers 7.12502
rthumb 18.1111 -64.4836
lclavicle -4.57205e-015 2.3059e-014
lhumerus -46.7618 19.7296 79.1339
lradius 48.1232
lwrist 5.72589
lhand -7.14142 -19.7798
lfingers 7.12502
lthumb 18.7348 9.33801
rfemur -3.02239 -1.91557 11.0017
rtibia 19.1299
rfoot -15.6756 -11.0231
rtoes 7.01308
lfemur 3.35467 2.42668 -7.00577
ltibia 7.44954
lfoot -4.74811 14.0501
ltoes -40.0271
264
root 3.42186 17.7956 7.82555 181.521 -182.852 178.255
lowerback 10.487 -0.247357 0.744987
upperback 0.193779 -0.0130996 3.81015
thorax -5.68971 0.0271864 3.58379
lowerneck -13.0873 1.38229 -0.160294
upperneck 14.3417 2.76541 -5.06472
head 6.60049 0.898012 -1.33664
rclavicle -3.47873e-015 -2.06736e-014
rhumerus -30.5089 -25.4681 -63.1175
rradius 24.4959
rwrist 5.10411
rhand -6.74629 -35.6015
rfingers 7.12502
rthumb 19.1148 -64.6822
lclavicle -3.47873e-015 -2.06736e-014
lhumerus -46.1734 18.9994 79.4123
lradius 49.015
lwrist 6.19488
lhand -7.19078 -19.5641
lfingers 7.12502
lthumb 18.6873 9.55828
rfemur -2.79059 -1.93895 10.7603
rtibia 18.9764
rfoot -15.4577 -11.3195
rtoes 5.89759
lfemur 3.33164 2.54563 -7.239
ltibia 7.52539
lfoot -4.91656 13.6858
ltoes -40.0952
265
root 3.4739 17.7978 7.80712 181.443 -183.084 178.392
lowerback 10.4393 -0.21372 0.468077
upperback 0.108506 -0.0132736 3.5891
thorax -5.7521 0.0326267 3.50762
lowerneck -12.936 1.33169 0.0330402
upperneck 14.318 2.67274 -5.17452
head 6.56796 0.857564 -1.41301
rclavicle 2.08724e-015 -4.21423e-014
rhumerus -30.7508 -25.2672 -63.5552
rradius 24.2422
rwrist 5.71702
rhand -6.96698 -35.5104
rfingers 7.12502
rthumb 18.9026 -64.6119
lclavicle 2.08724e-015 -4.21423e-014
lhumerus -45.6057 18.2911 79.6293
lradius 49.8824
lwrist 6.51329
lhand -7.28686 -19.0543
lfingers 7.12502
lthumb 18.5949 10.077
rfemur -2.63777 -2.09874 10.4262
rtibia 18.9272
rfoot -15.1521 -11.6319
rtoes 4.31777
lfemur 3.24957 2.62364 -7.55849
ltibia 7.60502
lfoot -5.04199 13.344
ltoes -40.0353
266
root 3.52469 17.7995 7.78989 181.343 -183.298 178.5
lowerback 10.3902 -0.17258 0.254746
upperback 0.0417031 0.00432712 3.38255
thorax -5.79532 0.0450856 3.40777
lowerneck -12.9085 1.32389 0.110294
upperneck 14.4098 2.65161 -5.17569
head 6.59271 0.850181 -1.4285
rclavicle 7.45443e-015 -7.95139e-015
rhumerus -30.875 -24.9592 -64.1021
rradius 23.8383
rwrist 5.56972
rhand -7.97399 -35.0662
rfingers 7.12502
rthumb 17.9339 -64.2593
lclavicle 7.45443e-015 -7.95139e-015
lhumerus -45.0082 17.768 79.776
lradius 50.5414
lwrist 6.64354
lhand -7.40091 -18.8428
lfingers 7.12502
lthumb 18.4852 10.2989
rfemur -2.4337 -2.20779 10.1218
rtibia 18.8092
rfoot -14.8818 -11.8563
rtoes 3.60194
lfemur 3.24721 2.62102 -7.87322
ltibia 7.60109
lfoot -5.08422 13.1
ltoes -39.6792
267
root 3.57074 17.8016 7.77443 181.199 -183.504 178.498
lowerback 10.4066 -0.103459 0.16671
upperback -0.0464382 0.0784232 3.21174
thorax -5.90125 0.083038 3.2673
lowerneck -12.8826 1.3315 0.166094
upperneck 14.5552 2.66476 -5.21192
head 6.63633 0.854191 -1.44868
rclavicle 1.0635e-014 -1.03368e-014
rhumerus -31.0346 -24.7676 -64.5498
rradius 23.4165
rwrist 5.54958
rhand -8.52058 -34.802
rfingers 7.12502
rthumb 17.4079 -64.0425
lclavicle 1.0635e-014 -1.03368e-014
lhumerus -44.4805 17.3135 79.8695
lradius 51.009
lwrist 6.74872
lhand -7.51527 -19.0157
lfingers 7.12502
lthumb 18.3752 10.1364
rfemur -2.16776 -2.21708 9.96643
rtibia 18.6221
rfoot -14.6582 -12.0161
rtoes 3.47735
lfemur 3.28108 2.69024 -8.01348
ltibia 7.6465
lfoot -5.13687 12.8155
ltoes -39.5184
268
root 3.61087 17.8032 7.76044 181.053 -183.655 178.509
lowerback 10.4082 -0.0019156 0.0127444
upperback -0.130352 0.189297 3.08076
thorax -5.99666 0.141533 3.20032
lowerneck -12.7747 1.35964 0.302778
upperneck 14.6679 2.72193 -5.45051
head 6.66086 0.868821 -1.5433
rclavicle -2.68359e-015 1.43125e-014
rhumerus -31.1849 -24.7385 -64.944
rradius 23.0661
rwrist 5.68618
rhand -9.11503 -34.6932
rfingers 7.12502
rthumb 16.8357 -63.9834
lclavicle -2.68359e-015 1.43125e-014
lhumerus -44.0044 16.9308 79.9838
lradius 51.3253
lwrist 6.88589
lhand -7.82668 -19.1934
lfingers 7.12502
lthumb 18.0756 9.9867
rfemur -1.92916 -2.16597 9.81654
rtibia 18.4533
rfoot -14.461 -12.1955
rtoes 3.27961
lfemur 3.32851 2.80319 -8.1299
ltibia 7.7045
lfoot -5.2123 12.5417
ltoes -39.5135
269
root 3.64893 17.8049 7.74737 180.887 -183.776 178.499
lowerback 10.3921 0.0925998 -0.080676
upperback -0.171777 0.297279 2.96194
thorax -6.03693 0.196205 3.11137
lowerneck -12.7492 1.46366 0.469926
upperneck 14.8236 2.88388 -5.70643
head 6.7179 0.931951 -1.63851
rclavicle -6.70898e-015 7.15625e-015
rhumerus -31.2603 -24.6955 -65.3988
rradius 22.7937
rwrist 5.70992
rhand -9.90249 -34.5471
rfingers 7.12502
rthumb 16.0775 -63.9001
lclavicle -6.70898e-015 7.15625e-015
lhumerus -43.4571 16.6635 80.0589
lradius 51.4762
lwrist 7.10167
lhand -8.09121 -19.2147
lfingers 7.12502
lthumb 17.8211 9.98872
rfemur -1.67796 -2.13092 9.7027
rtibia 18.3114
rfoot -14.3044 -12.3755
rtoes 2.90537
lfemur 3.44873 2.84851 -8.2292
ltibia 7.68134
lfoot -5.28982 12.3526
ltoes -39.4124
